<svg xmlns="http://www.w3.org/2000/svg" xmlns:xlink="http://www.w3.org/1999/xlink" fill="none" version="1.1" width="207.5" height="31" viewBox="0 0 207.5 31"><defs><linearGradient x1="0.5" y1="0" x2="0.5" y2="1" id="master_svg0_56_09911"><stop offset="2.857142873108387%" stop-color="#D9AEFF" stop-opacity="1"/><stop offset="100%" stop-color="#5751FE" stop-opacity="1"/></linearGradient></defs><g style="mix-blend-mode:passthrough"><g style="mix-blend-mode:passthrough"><path d="M41.36747,15.75714L37.5,15.75714L37.5,13.81429L54.0274,13.81429L54.0274,15.75714L44.16508,15.75714L41.91469,21.692L50.153800000000004,22.0714L48.9056,18.6714L51.666399999999996,18.6714L54.0274,24.5L51.2851,24.5L51.0945,24.0143L41.01085,24.0143L38.194791,24.0143L41.36747,15.75714ZM38.6129,7.985715L52.9084,7.985715L52.9084,9.92857L38.6129,9.92857L38.6129,7.985715ZM57.379599999999996,7.985715L73.39670000000001,7.985715L73.39670000000001,9.92857L60.0051,9.92857L60.0051,22.117L59.1566,24.5L56.531099999999995,24.5L57.379599999999996,22.170099999999998L57.379599999999996,7.985715ZM60.4601,24.5L61.9542,19.1571L64.4444,19.1571L62.9503,24.5L60.4601,24.5ZM71.4907,19.1571L72.9848,24.5L70.4884,24.5L68.9759,19.1571L71.4907,19.1571ZM65.465,10.41429L64.9178,11.38571L72.9233,11.38571L72.9233,16.40223Q72.9233,16.88795,72.78190000000001,17.29777Q72.6404,17.7076,72.4007,18.011200000000002Q72.167,18.3071,71.83500000000001,18.4893Q71.50909999999999,18.6714,71.1463,18.6714L68.2995,18.6714L68.2995,21.9348Q68.2995,22.4737,68.1397,22.944200000000002Q67.9798,23.4071,67.697,23.7562Q67.4141,24.1054,67.0329,24.3027Q66.6579,24.5,66.2213,24.5L63.7065,24.4545L64.5181,22.4205L65.09,22.4205Q65.3359,22.4205,65.5019,22.215600000000002Q65.6741,22.0031,65.6741,21.6768L65.6741,18.6714L63.1593,18.6714L62.4953,18.6714L60.5339,18.6714L60.5339,11.38571L62.0833,11.38571L62.6305,10.41429L65.465,10.41429ZM70.2978,16.24286L63.1593,16.24286L63.1593,16.728569999999998L69.8797,16.728569999999998Q70.2978,16.728569999999998,70.2978,16.47054L70.2978,16.24286ZM70.2978,13.32857L63.1593,13.32857L63.1593,14.3L70.2978,14.3L70.2978,13.32857ZM82.836,22.5571L82.836,18.1857L76.6198,18.1857L76.6198,16.24286L82.836,16.24286L82.836,12.357140000000001L76.37389999999999,12.357140000000001L76.3923,12.357140000000001L76.0541,12.357140000000001L77.001,7.985715L79.58959999999999,7.985715L79.0556,10.4145L82.836,10.41429L82.836,7.5L85.4615,7.5L85.4615,10.41429L92.2803,10.41429L92.2803,12.357140000000001L85.4615,12.357140000000001L85.4615,16.24286L91.6777,16.24286L91.6777,18.1857L85.4615,18.1857L85.4615,22.5571L92.0897,22.5571L92.0897,24.5L76.2079,24.5L76.2079,22.5571L82.836,22.5571ZM97.6185,9.81473L99.0142,20.6978L96.7515,20.6978L95.3558,9.81473L97.6185,9.81473ZM111.3298,10.1183L110.0509,20.6978L107.7821,20.6978L109.0672,10.1183L111.3298,10.1183ZM95.239,22.5571L99.3954,22.5571L99.3954,7.5L102.0209,7.5L102.0209,22.5571L104.7386,22.5571L104.7386,7.5L107.364,7.5L107.364,22.5571L111.5205,22.5571L111.5205,24.5L95.239,24.5L95.239,22.5571ZM130.85899999999998,22.246000000000002Q130.85899999999998,22.7241,130.7176,23.1263Q130.5762,23.5286,130.3364,23.8397Q130.1027,24.1433,129.7707,24.3254Q129.4448,24.5,129.0821,24.5L124.8518,24.5L125.7003,22.5571L127.9323,22.5571Q128.1721,22.5571,128.3442,22.3446Q128.5164,22.1246,128.5164,21.790599999999998L128.5164,19.642899999999997L120.1666,19.642899999999997L117.369,24.5L114.5775,24.5L117.3874,19.642899999999997L114.5775,19.6049L114.5775,17.7L118.4266,17.7L119.0722,16.728569999999998L121.8636,16.728569999999998L121.2057,17.7L128.5164,17.7L129.5002,17.7L130.85899999999998,17.7L130.85899999999998,22.1777L130.85899999999998,22.246000000000002ZM130.5762,16.728569999999998Q128.76229999999998,16.629910000000002,126.6534,16.387050000000002Q124.5506,16.144199999999998,122.4354,15.60536Q120.3388,16.144199999999998,118.2298,16.387050000000002Q116.1208,16.629910000000002,114.3131,16.728569999999998L114.3131,14.78571Q115.3891,14.61875,116.3483,14.451789999999999Q117.3137,14.28482,118.1806,14.07991Q117.1046,13.54866,116.2069,12.8808Q115.3092,12.21295,114.6329,11.38571L118.2175,11.38571Q119.2566,12.03839,120.2773,12.49375Q121.2979,12.949110000000001,122.4354,13.27545Q123.7574,12.87321,124.9379,12.3192Q126.1185,11.75759,127.3236,10.9L116.7849,10.9L114.8604,10.9L114.4423,10.9L115.881,7.5L118.2175,7.5L117.6703,8.95714L130.5762,8.95714L130.5762,10.9Q129.8752,11.90179,128.8792,12.69107Q127.8893,13.47277,126.7026,14.07991Q127.5695,14.28482,128.52870000000001,14.451789999999999Q129.494,14.61875,130.5762,14.78571L130.5762,16.728569999999998ZM148.076,11.87143Q148.494,11.87143,148.857,12.06875Q149.226,12.26607,149.49,12.60759Q149.761,12.94152,149.921,13.39688Q150.08100000000002,13.852229999999999,150.08100000000002,14.3683L150.08100000000002,14.78571L148.75900000000001,14.78571L148.75900000000001,16.24286L148.75900000000001,17.275Q148.75900000000001,18.0491,148.322,18.603099999999998Q147.892,19.1571,147.28300000000002,19.1571L137.519,19.1571L137.519,19.642899999999997L148.75900000000001,19.642899999999997L148.75900000000001,20.029899999999998L148.75900000000001,21.5857L148.75900000000001,22.6179Q148.75900000000001,23.0049,148.642,23.354Q148.531,23.6955,148.33499999999998,23.9536Q148.138,24.204,147.861,24.3558Q147.591,24.5,147.28300000000002,24.5L134.949,24.5L134.949,22.7469L134.949,21.6464L134.949,19.8478L134.949,19.0054L134.949,17.22946L134.949,16.10625L134.949,14.78571L133.498,14.78571L133.498,11.87143L140.21800000000002,11.87143L139.936,11.87143L142.789,11.87143L143.071,11.87143L148.076,11.87143ZM137.519,21.5857L137.519,22.5571L145.887,22.5571Q146.189,22.5571,146.189,22.215600000000002L146.189,21.5857L137.519,21.5857ZM136.0804,13.81429L136.0804,14.3L147.49200000000002,14.3L147.49200000000002,14.14062Q147.49200000000002,14.00402,147.351,13.91295Q147.209,13.81429,147,13.81429L143.053,13.81429L140.464,13.81429L136.0804,13.81429ZM146.189,16.24286L137.519,16.24286L137.519,17.214280000000002L145.887,17.214280000000002Q146.189,17.214280000000002,146.189,16.88036L146.189,16.24286ZM141.393,9.92857L139.63400000000001,9.92857L140.126,10.9L137.93099999999998,10.9L137.42079999999999,9.92857L136.51690000000002,9.92857L136.09879999999998,10.9L133.498,10.9L134.7769,7.985715L137.3654,7.985715L137.11950000000002,7.985715L141.393,7.985715L141.393,9.92857ZM145.789,7.985715L145.525,7.985715L149.798,7.985715L149.798,9.92857L148.039,9.92857L148.55,10.9L146.34199999999998,10.9L145.832,9.92857L144.922,9.92857L144.51,10.9L141.90300000000002,10.9L143.188,7.985715L145.789,7.985715ZM169.247,24.5L159.40300000000002,24.5L159.40300000000002,22.5571L163.012,22.5571L163.012,20.6143L159.539,20.6143L159.539,18.6714L163.012,18.6714L163.012,17.214280000000002L161.857,17.214280000000002L159.877,17.214280000000002L159.459,17.214280000000002L159.459,7.5L159.877,7.5L161.857,7.5L169.186,7.5L169.186,14.55804Q169.186,15.11205,169.026,15.59777Q168.866,16.07589,168.583,16.440179999999998Q168.3,16.80446,167.919,17.00937Q167.544,17.214280000000002,167.107,17.214280000000002L165.638,17.214280000000002L165.638,18.6714L169.093,18.6714L169.093,20.6143L165.638,20.6143L165.638,22.5571L169.247,22.5571L169.247,24.5ZM166.769,13.32857L165.638,13.32857L165.638,15.271429999999999L166.185,15.271429999999999Q166.431,15.271429999999999,166.597,15.05134Q166.769,14.83125,166.769,14.49732L166.769,13.32857ZM166.769,9.44286L165.638,9.44286L165.638,11.38571L166.769,11.38571L166.769,9.44286ZM161.857,9.44286L161.857,11.38571L163.012,11.38571L163.012,9.44286L161.857,9.44286ZM163.012,15.271429999999999L163.012,13.32857L161.857,13.32857L161.857,15.271429999999999L163.012,15.271429999999999ZM152.72,7.5L158.78199999999998,7.5L158.78199999999998,9.44286L157.061,9.44286L157.061,14.3L158.61,14.3L158.61,16.24286L157.061,16.24286L157.061,22.5571L158.78199999999998,22.5571L158.78199999999998,24.5L152.72,24.5L152.72,22.5571L154.435,22.5571L154.435,16.24286L152.904,16.24286L152.904,14.3L154.435,14.3L154.435,9.44286L152.72,9.44286L152.72,7.5ZM183.538,16.728569999999998L184.632,10.9L186.901,10.9L185.807,16.728569999999998L183.538,16.728569999999998ZM177.039,16.728569999999998L174.77,16.728569999999998L173.755,10.9L176.018,10.9L177.039,16.728569999999998ZM188.487,20.1286L181.515,20.1286L181.515,24.5L178.889,24.5L178.889,20.1286L171.905,20.1286L171.905,19.6125L171.905,18.284399999999998L171.905,18.1857L178.889,18.1857L178.889,9.92857L172.526,9.92857L172.526,9.63259L172.526,8.304465L172.526,7.985715L187.86,7.985715L187.86,8.304465L187.86,9.63259L187.86,9.92857L181.515,9.92857L181.515,18.1857L188.487,18.1857L188.487,18.284399999999998L188.487,19.6125L188.487,20.1286ZM206.99,21.9879Q206.99,22.4205,206.848,22.7848Q206.707,23.1491,206.467,23.4223Q206.233,23.6879,205.901,23.8549Q205.575,24.0143,205.213,24.0143L194.354,24.0143L191.594,24.0143L191.594,21.8589L191.594,18.1857L191.594,17.950400000000002L191.594,16.24286L206.99,16.24286L206.99,16.28839L206.99,18.360300000000002L206.99,21.9879ZM204.235,18.1857L194.354,18.1857L194.354,22.0714L203.651,22.0714Q203.897,22.0714,204.063,21.8589Q204.235,21.6464,204.235,21.3201L204.235,18.1857ZM191.292,14.78571L194.938,7.985715L197.601,7.985715L195.147,12.84286L203.608,12.84286L201.757,9.04062L204.29,9.04062L207.5,15.32455L204.985,15.32455L204.721,14.78571L193.955,14.78571L192.049,14.78571L191.292,14.78571Z" fill="#283347" fill-opacity="1"/></g><g style="mix-blend-mode:passthrough"><ellipse cx="15.5" cy="15.5" rx="12" ry="12" fill-opacity="0" stroke-opacity="1" stroke="#3C4FEB" fill="none" stroke-width="7"/></g><g style="mix-blend-mode:passthrough"><path d="M23.091178125,1.985649375Q26.880028125,4.114115375,29.010078125,7.902079375Q31.140078125000002,11.690059375,30.990378125,16.033209375Q30.840678125,20.376409375,28.454868125,24.008709375Q26.069038125,27.641109375,22.142608125,29.503609375L19.142548125,23.179009375Q21.295749125,22.157709375,22.604108125,20.165809375000002Q23.912458125,18.173909375,23.994568125,15.792109375Q24.076668125,13.410349375,22.908568125,11.333069375000001Q21.740488125,9.255799374999999,19.662725125,8.088569375L23.091178125,1.985649375Z" fill="url(#master_svg0_56_09911)" fill-opacity="1"/></g></g></svg>